<svg id="visual" viewBox="0 0 1920 1080" width="1920" height="1080" xmlns="http://www.w3.org/2000/svg" xmlns:xlink="http://www.w3.org/1999/xlink" version="1.1"><g stroke-width="2" stroke-linejoin="bevel"><path d="M997 519L1158 363L1021 375Z" fill="#0f0f0f" stroke="#0b0a0a"></path><path d="M997 519L1195 581L1158 363Z" fill="#090909" stroke="#0b0a0a"></path><path d="M1339 525L1304 354L1158 363Z" fill="#050505" stroke="#0b0a0a"></path><path d="M1195 581L1339 525L1158 363Z" fill="#0b0b0b" stroke="#0b0a0a"></path><path d="M1304 354L1089 175L1158 363Z" fill="#000000" stroke="#0b0a0a"></path><path d="M1158 363L1089 175L1021 375Z" fill="#020202" stroke="#0b0a0a"></path><path d="M997 519L978 731L1195 581Z" fill="#050505" stroke="#0b0a0a"></path><path d="M1195 581L1367 664L1339 525Z" fill="#101010" stroke="#0b0a0a"></path><path d="M1089 175L931 178L1021 375Z" fill="#040404" stroke="#0b0a0a"></path><path d="M1021 375L791 320L997 519Z" fill="#101010" stroke="#0b0a0a"></path><path d="M997 519L764 582L978 731Z" fill="#101010" stroke="#0b0a0a"></path><path d="M1209 781L1367 664L1195 581Z" fill="#020202" stroke="#0b0a0a"></path><path d="M931 178L791 320L1021 375Z" fill="#0d0d0d" stroke="#0b0a0a"></path><path d="M978 731L1209 781L1195 581Z" fill="#0d0d0d" stroke="#0b0a0a"></path><path d="M791 320L764 582L997 519Z" fill="#101010" stroke="#0b0a0a"></path><path d="M1543 298L1359 114L1304 354Z" fill="#050505" stroke="#0b0a0a"></path><path d="M1304 354L1359 114L1089 175Z" fill="#0d0d0d" stroke="#0b0a0a"></path><path d="M796 0L783 146L931 178Z" fill="#0c0c0c" stroke="#0b0a0a"></path><path d="M1562 501L1304 354L1339 525Z" fill="#0f0f0f" stroke="#0b0a0a"></path><path d="M568 697L734 717L764 582Z" fill="#050505" stroke="#0b0a0a"></path><path d="M764 582L734 717L978 731Z" fill="#101010" stroke="#0b0a0a"></path><path d="M978 731L1022 905L1209 781Z" fill="#000000" stroke="#0b0a0a"></path><path d="M985 0L931 178L1089 175Z" fill="#0c0c0c" stroke="#0b0a0a"></path><path d="M931 178L783 146L791 320Z" fill="#0c0c0c" stroke="#0b0a0a"></path><path d="M791 320L631 500L764 582Z" fill="#000000" stroke="#0b0a0a"></path><path d="M710 860L1022 905L978 731Z" fill="#090909" stroke="#0b0a0a"></path><path d="M1022 905L1117 922L1209 781Z" fill="#0c0c0c" stroke="#0b0a0a"></path><path d="M1209 781L1364 874L1367 664Z" fill="#0d0d0d" stroke="#0b0a0a"></path><path d="M1359 114L1144 0L1089 175Z" fill="#070707" stroke="#0b0a0a"></path><path d="M1527 749L1562 501L1367 664Z" fill="#020202" stroke="#0b0a0a"></path><path d="M1367 664L1562 501L1339 525Z" fill="#0f0f0f" stroke="#0b0a0a"></path><path d="M634 336L631 500L791 320Z" fill="#0f0f0f" stroke="#0b0a0a"></path><path d="M1562 501L1543 298L1304 354Z" fill="#0f0f0f" stroke="#0b0a0a"></path><path d="M1144 0L985 0L1089 175Z" fill="#101010" stroke="#0b0a0a"></path><path d="M783 146L634 336L791 320Z" fill="#0f0f0f" stroke="#0b0a0a"></path><path d="M1117 922L1364 874L1209 781Z" fill="#050505" stroke="#0b0a0a"></path><path d="M1364 874L1527 749L1367 664Z" fill="#000000" stroke="#0b0a0a"></path><path d="M1492 0L1376 0L1359 114Z" fill="#040404" stroke="#0b0a0a"></path><path d="M1359 114L1376 0L1144 0Z" fill="#050505" stroke="#0b0a0a"></path><path d="M985 0L796 0L931 178Z" fill="#101010" stroke="#0b0a0a"></path><path d="M783 146L538 208L634 336Z" fill="#050505" stroke="#0b0a0a"></path><path d="M734 717L710 860L978 731Z" fill="#020202" stroke="#0b0a0a"></path><path d="M1022 905L1087 1080L1117 922Z" fill="#000000" stroke="#0b0a0a"></path><path d="M568 697L710 860L734 717Z" fill="#0d0d0d" stroke="#0b0a0a"></path><path d="M1777 153L1545 120L1543 298Z" fill="#040404" stroke="#0b0a0a"></path><path d="M1543 298L1545 120L1359 114Z" fill="#101010" stroke="#0b0a0a"></path><path d="M427 528L568 697L631 500Z" fill="#0f0f0f" stroke="#0b0a0a"></path><path d="M631 500L568 697L764 582Z" fill="#101010" stroke="#0b0a0a"></path><path d="M1545 120L1492 0L1359 114Z" fill="#070707" stroke="#0b0a0a"></path><path d="M590 0L538 208L783 146Z" fill="#0f0f0f" stroke="#0b0a0a"></path><path d="M634 336L427 528L631 500Z" fill="#101010" stroke="#0b0a0a"></path><path d="M1301 1080L1484 940L1364 874Z" fill="#070707" stroke="#0b0a0a"></path><path d="M1364 874L1484 940L1527 749Z" fill="#101010" stroke="#0b0a0a"></path><path d="M905 1080L1087 1080L1022 905Z" fill="#0b0b0b" stroke="#0b0a0a"></path><path d="M1117 922L1301 1080L1364 874Z" fill="#0c0c0c" stroke="#0b0a0a"></path><path d="M1691 844L1682 682L1527 749Z" fill="#050505" stroke="#0b0a0a"></path><path d="M1527 749L1682 682L1562 501Z" fill="#020202" stroke="#0b0a0a"></path><path d="M1562 501L1727 402L1543 298Z" fill="#020202" stroke="#0b0a0a"></path><path d="M1722 591L1727 402L1562 501Z" fill="#0b0b0b" stroke="#0b0a0a"></path><path d="M1545 120L1701 0L1492 0Z" fill="#0f0f0f" stroke="#0b0a0a"></path><path d="M1682 682L1722 591L1562 501Z" fill="#0d0d0d" stroke="#0b0a0a"></path><path d="M710 860L905 1080L1022 905Z" fill="#0b0b0b" stroke="#0b0a0a"></path><path d="M1087 1080L1301 1080L1117 922Z" fill="#0b0b0b" stroke="#0b0a0a"></path><path d="M403 318L427 528L634 336Z" fill="#050505" stroke="#0b0a0a"></path><path d="M796 0L590 0L783 146Z" fill="#0d0d0d" stroke="#0b0a0a"></path><path d="M538 208L403 318L634 336Z" fill="#101010" stroke="#0b0a0a"></path><path d="M427 528L443 684L568 697Z" fill="#0c0c0c" stroke="#0b0a0a"></path><path d="M568 697L531 873L710 860Z" fill="#050505" stroke="#0b0a0a"></path><path d="M710 860L750 1080L905 1080Z" fill="#070707" stroke="#0b0a0a"></path><path d="M443 684L531 873L568 697Z" fill="#000000" stroke="#0b0a0a"></path><path d="M1484 940L1691 844L1527 749Z" fill="#020202" stroke="#0b0a0a"></path><path d="M1920 769L1920 549L1722 591Z" fill="#0c0c0c" stroke="#0b0a0a"></path><path d="M1577 1080L1691 844L1484 940Z" fill="#0d0d0d" stroke="#0b0a0a"></path><path d="M580 1080L750 1080L710 860Z" fill="#0d0d0d" stroke="#0b0a0a"></path><path d="M344 128L403 318L538 208Z" fill="#0d0d0d" stroke="#0b0a0a"></path><path d="M235 727L394 881L443 684Z" fill="#0c0c0c" stroke="#0b0a0a"></path><path d="M1920 549L1727 402L1722 591Z" fill="#0b0b0b" stroke="#0b0a0a"></path><path d="M1920 305L1777 153L1727 402Z" fill="#0c0c0c" stroke="#0b0a0a"></path><path d="M1727 402L1777 153L1543 298Z" fill="#0f0f0f" stroke="#0b0a0a"></path><path d="M1777 153L1701 0L1545 120Z" fill="#0d0d0d" stroke="#0b0a0a"></path><path d="M1301 1080L1577 1080L1484 940Z" fill="#101010" stroke="#0b0a0a"></path><path d="M531 873L580 1080L710 860Z" fill="#000000" stroke="#0b0a0a"></path><path d="M397 1080L580 1080L531 873Z" fill="#040404" stroke="#0b0a0a"></path><path d="M590 0L434 0L538 208Z" fill="#020202" stroke="#0b0a0a"></path><path d="M230 535L443 684L427 528Z" fill="#020202" stroke="#0b0a0a"></path><path d="M443 684L394 881L531 873Z" fill="#0d0d0d" stroke="#0b0a0a"></path><path d="M434 0L344 128L538 208Z" fill="#0c0c0c" stroke="#0b0a0a"></path><path d="M403 318L230 535L427 528Z" fill="#000000" stroke="#0b0a0a"></path><path d="M1920 769L1682 682L1691 844Z" fill="#040404" stroke="#0b0a0a"></path><path d="M1920 769L1722 591L1682 682Z" fill="#000000" stroke="#0b0a0a"></path><path d="M1920 549L1920 305L1727 402Z" fill="#0b0b0b" stroke="#0b0a0a"></path><path d="M1777 153L1920 0L1701 0Z" fill="#0b0b0b" stroke="#0b0a0a"></path><path d="M1920 305L1920 220L1777 153Z" fill="#0d0d0d" stroke="#0b0a0a"></path><path d="M1577 1080L1709 1080L1691 844Z" fill="#0d0d0d" stroke="#0b0a0a"></path><path d="M148 345L230 535L403 318Z" fill="#070707" stroke="#0b0a0a"></path><path d="M1920 876L1920 769L1691 844Z" fill="#000000" stroke="#0b0a0a"></path><path d="M230 535L235 727L443 684Z" fill="#020202" stroke="#0b0a0a"></path><path d="M394 881L397 1080L531 873Z" fill="#050505" stroke="#0b0a0a"></path><path d="M240 0L240 134L344 128Z" fill="#040404" stroke="#0b0a0a"></path><path d="M344 128L240 134L403 318Z" fill="#090909" stroke="#0b0a0a"></path><path d="M1709 1080L1920 876L1691 844Z" fill="#0b0b0b" stroke="#0b0a0a"></path><path d="M194 1080L397 1080L394 881Z" fill="#020202" stroke="#0b0a0a"></path><path d="M1920 220L1920 0L1777 153Z" fill="#070707" stroke="#0b0a0a"></path><path d="M240 134L148 345L403 318Z" fill="#0d0d0d" stroke="#0b0a0a"></path><path d="M230 535L0 658L235 727Z" fill="#040404" stroke="#0b0a0a"></path><path d="M434 0L240 0L344 128Z" fill="#050505" stroke="#0b0a0a"></path><path d="M0 240L0 338L148 345Z" fill="#040404" stroke="#0b0a0a"></path><path d="M1709 1080L1920 1080L1920 876Z" fill="#000000" stroke="#0b0a0a"></path><path d="M0 905L136 964L235 727Z" fill="#070707" stroke="#0b0a0a"></path><path d="M235 727L136 964L394 881Z" fill="#050505" stroke="#0b0a0a"></path><path d="M136 964L194 1080L394 881Z" fill="#0b0b0b" stroke="#0b0a0a"></path><path d="M148 345L0 509L230 535Z" fill="#0f0f0f" stroke="#0b0a0a"></path><path d="M0 338L0 509L148 345Z" fill="#0d0d0d" stroke="#0b0a0a"></path><path d="M0 240L148 345L240 134Z" fill="#050505" stroke="#0b0a0a"></path><path d="M0 509L0 658L230 535Z" fill="#000000" stroke="#0b0a0a"></path><path d="M0 0L0 240L240 134Z" fill="#040404" stroke="#0b0a0a"></path><path d="M0 658L0 905L235 727Z" fill="#070707" stroke="#0b0a0a"></path><path d="M136 964L0 1080L194 1080Z" fill="#040404" stroke="#0b0a0a"></path><path d="M240 0L0 0L240 134Z" fill="#070707" stroke="#0b0a0a"></path><path d="M0 905L0 1080L136 964Z" fill="#090909" stroke="#0b0a0a"></path></g></svg>