<svg id="visual" viewBox="0 0 1920 1080" width="1920" height="1080" xmlns="http://www.w3.org/2000/svg" xmlns:xlink="http://www.w3.org/1999/xlink" version="1.1"><g stroke-width="1" stroke-linejoin="bevel"><path d="M990 573L955 758L1160 719Z" fill="#040404" stroke="#040404"></path><path d="M1160 719L1200 563L990 573Z" fill="#101010" stroke="#101010"></path><path d="M955 758L1183 852L1160 719Z" fill="#0b0b0b" stroke="#0b0b0b"></path><path d="M1160 719L1355 670L1200 563Z" fill="#0b0b0b" stroke="#0b0b0b"></path><path d="M769 776L899 891L955 758Z" fill="#020202" stroke="#020202"></path><path d="M955 758L899 891L1183 852Z" fill="#0d0d0d" stroke="#0d0d0d"></path><path d="M1200 563L1103 408L990 573Z" fill="#050505" stroke="#050505"></path><path d="M738 599L955 758L990 573Z" fill="#101010" stroke="#101010"></path><path d="M738 599L769 776L955 758Z" fill="#000000" stroke="#000000"></path><path d="M1183 852L1355 670L1160 719Z" fill="#101010" stroke="#101010"></path><path d="M1200 563L1317 369L1103 408Z" fill="#040404" stroke="#040404"></path><path d="M772 382L738 599L990 573Z" fill="#0c0c0c" stroke="#0c0c0c"></path><path d="M769 776L820 963L899 891Z" fill="#0c0c0c" stroke="#0c0c0c"></path><path d="M899 891L1121 1080L1183 852Z" fill="#0b0b0b" stroke="#0b0b0b"></path><path d="M1103 408L1000 311L990 573Z" fill="#040404" stroke="#040404"></path><path d="M1355 670L1386 525L1200 563Z" fill="#070707" stroke="#070707"></path><path d="M1103 408L1125 174L1000 311Z" fill="#101010" stroke="#101010"></path><path d="M1287 1080L1389 867L1183 852Z" fill="#0f0f0f" stroke="#0f0f0f"></path><path d="M1183 852L1389 867L1355 670Z" fill="#070707" stroke="#070707"></path><path d="M1355 670L1525 543L1386 525Z" fill="#020202" stroke="#020202"></path><path d="M1000 311L772 382L990 573Z" fill="#0b0b0b" stroke="#0b0b0b"></path><path d="M961 1080L1121 1080L899 891Z" fill="#000000" stroke="#000000"></path><path d="M820 963L961 1080L899 891Z" fill="#0c0c0c" stroke="#0c0c0c"></path><path d="M1386 525L1317 369L1200 563Z" fill="#070707" stroke="#070707"></path><path d="M772 382L633 503L738 599Z" fill="#0b0b0b" stroke="#0b0b0b"></path><path d="M738 599L553 718L769 776Z" fill="#101010" stroke="#101010"></path><path d="M579 938L707 1080L820 963Z" fill="#0d0d0d" stroke="#0d0d0d"></path><path d="M1121 1080L1287 1080L1183 852Z" fill="#070707" stroke="#070707"></path><path d="M633 503L553 718L738 599Z" fill="#0b0b0b" stroke="#0b0b0b"></path><path d="M1552 740L1525 543L1355 670Z" fill="#020202" stroke="#020202"></path><path d="M1386 525L1542 342L1317 369Z" fill="#0f0f0f" stroke="#0f0f0f"></path><path d="M1389 867L1552 740L1355 670Z" fill="#0c0c0c" stroke="#0c0c0c"></path><path d="M1587 897L1552 740L1389 867Z" fill="#0c0c0c" stroke="#0c0c0c"></path><path d="M1384 146L1125 174L1317 369Z" fill="#0f0f0f" stroke="#0f0f0f"></path><path d="M1317 369L1125 174L1103 408Z" fill="#0f0f0f" stroke="#0f0f0f"></path><path d="M1000 311L769 202L772 382Z" fill="#000000" stroke="#000000"></path><path d="M579 938L820 963L769 776Z" fill="#0c0c0c" stroke="#0c0c0c"></path><path d="M820 963L707 1080L961 1080Z" fill="#020202" stroke="#020202"></path><path d="M553 718L579 938L769 776Z" fill="#050505" stroke="#050505"></path><path d="M1125 174L911 162L1000 311Z" fill="#101010" stroke="#101010"></path><path d="M772 382L602 303L633 503Z" fill="#040404" stroke="#040404"></path><path d="M911 162L769 202L1000 311Z" fill="#090909" stroke="#090909"></path><path d="M769 202L602 303L772 382Z" fill="#101010" stroke="#101010"></path><path d="M403 529L418 737L553 718Z" fill="#020202" stroke="#020202"></path><path d="M1546 1080L1587 897L1389 867Z" fill="#101010" stroke="#101010"></path><path d="M1744 501L1542 342L1525 543Z" fill="#070707" stroke="#070707"></path><path d="M1729 670L1525 543L1552 740Z" fill="#0c0c0c" stroke="#0c0c0c"></path><path d="M1525 543L1542 342L1386 525Z" fill="#040404" stroke="#040404"></path><path d="M775 0L630 216L769 202Z" fill="#070707" stroke="#070707"></path><path d="M769 202L630 216L602 303Z" fill="#0c0c0c" stroke="#0c0c0c"></path><path d="M403 529L553 718L633 503Z" fill="#040404" stroke="#040404"></path><path d="M553 718L418 737L579 938Z" fill="#101010" stroke="#101010"></path><path d="M403 529L633 503L602 303Z" fill="#0f0f0f" stroke="#0f0f0f"></path><path d="M1542 342L1384 146L1317 369Z" fill="#101010" stroke="#101010"></path><path d="M1125 174L969 0L911 162Z" fill="#0c0c0c" stroke="#0c0c0c"></path><path d="M579 938L551 1080L707 1080Z" fill="#070707" stroke="#070707"></path><path d="M419 1080L551 1080L579 938Z" fill="#0d0d0d" stroke="#0d0d0d"></path><path d="M1287 1080L1546 1080L1389 867Z" fill="#020202" stroke="#020202"></path><path d="M377 333L403 529L602 303Z" fill="#0b0b0b" stroke="#0b0b0b"></path><path d="M1359 0L1113 0L1125 174Z" fill="#0f0f0f" stroke="#0f0f0f"></path><path d="M911 162L775 0L769 202Z" fill="#101010" stroke="#101010"></path><path d="M1782 960L1729 670L1587 897Z" fill="#070707" stroke="#070707"></path><path d="M1587 897L1729 670L1552 740Z" fill="#050505" stroke="#050505"></path><path d="M1113 0L969 0L1125 174Z" fill="#0b0b0b" stroke="#0b0b0b"></path><path d="M183 898L392 922L418 737Z" fill="#0c0c0c" stroke="#0c0c0c"></path><path d="M418 737L392 922L579 938Z" fill="#000000" stroke="#000000"></path><path d="M1542 342L1538 171L1384 146Z" fill="#101010" stroke="#101010"></path><path d="M1384 146L1359 0L1125 174Z" fill="#040404" stroke="#040404"></path><path d="M1741 178L1538 171L1542 342Z" fill="#0c0c0c" stroke="#0c0c0c"></path><path d="M1729 670L1744 501L1525 543Z" fill="#000000" stroke="#000000"></path><path d="M969 0L775 0L911 162Z" fill="#020202" stroke="#020202"></path><path d="M397 200L377 333L602 303Z" fill="#070707" stroke="#070707"></path><path d="M392 922L419 1080L579 938Z" fill="#020202" stroke="#020202"></path><path d="M1586 0L1359 0L1384 146Z" fill="#0d0d0d" stroke="#0d0d0d"></path><path d="M1546 1080L1678 1080L1587 897Z" fill="#040404" stroke="#040404"></path><path d="M397 200L602 303L630 216Z" fill="#090909" stroke="#090909"></path><path d="M403 529L156 670L418 737Z" fill="#070707" stroke="#070707"></path><path d="M1744 501L1760 358L1542 342Z" fill="#0f0f0f" stroke="#0f0f0f"></path><path d="M1538 171L1586 0L1384 146Z" fill="#0b0b0b" stroke="#0b0b0b"></path><path d="M1920 477L1760 358L1744 501Z" fill="#040404" stroke="#040404"></path><path d="M1678 1080L1782 960L1587 897Z" fill="#050505" stroke="#050505"></path><path d="M1729 670L1920 477L1744 501Z" fill="#101010" stroke="#101010"></path><path d="M515 0L397 200L630 216Z" fill="#101010" stroke="#101010"></path><path d="M1760 358L1741 178L1542 342Z" fill="#101010" stroke="#101010"></path><path d="M775 0L515 0L630 216Z" fill="#050505" stroke="#050505"></path><path d="M1684 0L1586 0L1538 171Z" fill="#000000" stroke="#000000"></path><path d="M246 136L256 308L397 200Z" fill="#090909" stroke="#090909"></path><path d="M397 200L256 308L377 333Z" fill="#070707" stroke="#070707"></path><path d="M377 333L184 527L403 529Z" fill="#020202" stroke="#020202"></path><path d="M392 922L203 1080L419 1080Z" fill="#040404" stroke="#040404"></path><path d="M1782 960L1920 730L1729 670Z" fill="#0c0c0c" stroke="#0c0c0c"></path><path d="M1760 358L1920 299L1741 178Z" fill="#070707" stroke="#070707"></path><path d="M256 308L184 527L377 333Z" fill="#0f0f0f" stroke="#0f0f0f"></path><path d="M184 527L156 670L403 529Z" fill="#000000" stroke="#000000"></path><path d="M156 670L183 898L418 737Z" fill="#0f0f0f" stroke="#0f0f0f"></path><path d="M1920 730L1920 477L1729 670Z" fill="#090909" stroke="#090909"></path><path d="M1782 960L1920 912L1920 730Z" fill="#070707" stroke="#070707"></path><path d="M1920 1080L1920 912L1782 960Z" fill="#090909" stroke="#090909"></path><path d="M1920 0L1684 0L1741 178Z" fill="#070707" stroke="#070707"></path><path d="M1741 178L1684 0L1538 171Z" fill="#0f0f0f" stroke="#0f0f0f"></path><path d="M0 962L203 1080L183 898Z" fill="#020202" stroke="#020202"></path><path d="M183 898L203 1080L392 922Z" fill="#040404" stroke="#040404"></path><path d="M515 0L382 0L397 200Z" fill="#0d0d0d" stroke="#0d0d0d"></path><path d="M1920 477L1920 299L1760 358Z" fill="#040404" stroke="#040404"></path><path d="M1678 1080L1920 1080L1782 960Z" fill="#070707" stroke="#070707"></path><path d="M0 500L0 725L156 670Z" fill="#040404" stroke="#040404"></path><path d="M0 386L0 500L184 527Z" fill="#070707" stroke="#070707"></path><path d="M382 0L246 136L397 200Z" fill="#0f0f0f" stroke="#0f0f0f"></path><path d="M1920 299L1920 144L1741 178Z" fill="#050505" stroke="#050505"></path><path d="M156 670L0 725L183 898Z" fill="#0f0f0f" stroke="#0f0f0f"></path><path d="M0 500L156 670L184 527Z" fill="#000000" stroke="#000000"></path><path d="M0 386L184 527L256 308Z" fill="#0f0f0f" stroke="#0f0f0f"></path><path d="M0 725L0 962L183 898Z" fill="#0f0f0f" stroke="#0f0f0f"></path><path d="M382 0L201 0L246 136Z" fill="#020202" stroke="#020202"></path><path d="M0 138L0 386L256 308Z" fill="#050505" stroke="#050505"></path><path d="M0 138L256 308L246 136Z" fill="#0d0d0d" stroke="#0d0d0d"></path><path d="M1920 144L1920 0L1741 178Z" fill="#090909" stroke="#090909"></path><path d="M0 962L0 1080L203 1080Z" fill="#101010" stroke="#101010"></path><path d="M201 0L0 138L246 136Z" fill="#0f0f0f" stroke="#0f0f0f"></path><path d="M201 0L0 0L0 138Z" fill="#101010" stroke="#101010"></path></g></svg>